HIERARCHY
ROOT Hips
{
	OFFSET 0.00000 0.00000 0.00000
	CHANNELS 6 Xposition Yposition Zposition Zrotation Yrotation Xrotation 
	JOINT LHipJoint
	{
		OFFSET 0 0 0
		CHANNELS 3 Zrotation Yrotation Xrotation
		JOINT LeftUpLeg
		{
			OFFSET 1.53794 -1.55850 0.93568
			CHANNELS 3 Zrotation Yrotation Xrotation
			JOINT LeftLeg
			{
				OFFSET 2.28545 -6.27922 0.00000
				CHANNELS 3 Zrotation Yrotation Xrotation
				JOINT LeftFoot
				{
					OFFSET 2.37329 -6.52057 0.00000
					CHANNELS 3 Zrotation Yrotation Xrotation
					JOINT LeftToeBase
					{
						OFFSET 0.14846 -0.40788 2.09160
						CHANNELS 3 Zrotation Yrotation Xrotation
						End Site
						{
							OFFSET 0.00000 -0.00000 1.07536
						}
					}
				}
			}
		}
	}
	JOINT RHipJoint
	{
		OFFSET 0 0 0
		CHANNELS 3 Zrotation Yrotation Xrotation
		JOINT RightUpLeg
		{
			OFFSET -1.78290 -1.55850 0.93568
			CHANNELS 3 Zrotation Yrotation Xrotation
			JOINT RightLeg
			{
				OFFSET -2.24144 -6.15831 0.00000
				CHANNELS 3 Zrotation Yrotation Xrotation
				JOINT RightFoot
				{
					OFFSET -2.35091 -6.45907 0.00000
					CHANNELS 3 Zrotation Yrotation Xrotation
					JOINT RightToeBase
					{
						OFFSET -0.14428 -0.39641 2.07944
						CHANNELS 3 Zrotation Yrotation Xrotation
						End Site
						{
							OFFSET -0.00000 -0.00000 1.06864
						}
					}
				}
			}
		}
	}
	JOINT LowerBack
	{
		OFFSET 0 0 0
		CHANNELS 3 Zrotation Yrotation Xrotation
		JOINT Spine
		{
			OFFSET -0.08841 2.11430 -0.15818
			CHANNELS 3 Zrotation Yrotation Xrotation
			JOINT Spine1
			{
				OFFSET -0.00033 2.12605 -0.08097
				CHANNELS 3 Zrotation Yrotation Xrotation
				JOINT Neck
				{
					OFFSET 0 0 0
					CHANNELS 3 Zrotation Yrotation Xrotation
					JOINT Neck1
					{
						OFFSET 0.04431 1.59447 0.43193
						CHANNELS 3 Zrotation Yrotation Xrotation
						JOINT Head
						{
							OFFSET 0.00455 1.62017 -0.58852
							CHANNELS 3 Zrotation Yrotation Xrotation
							End Site
							{
								OFFSET -0.00920 1.72955 -0.25850
							}
						}
					}
				}
				JOINT LeftShoulder
				{
					OFFSET 0 0 0
					CHANNELS 3 Zrotation Yrotation Xrotation
					JOINT LeftArm
					{
						OFFSET 2.86490 1.49927 -0.33774
						CHANNELS 3 Zrotation Yrotation Xrotation
						JOINT LeftForeArm
						{
							OFFSET 4.87408 -0.00000 0.00000
							CHANNELS 3 Zrotation Yrotation Xrotation
							JOINT LeftHand
							{
								OFFSET 2.76729 -0.00000 0.00000
								CHANNELS 3 Zrotation Yrotation Xrotation
								JOINT LeftFingerBase
								{
									OFFSET 0 0 0
									CHANNELS 3 Zrotation Yrotation Xrotation
									JOINT LeftHandIndex1
									{
										OFFSET 0.98922 -0.00000 0.00000
										CHANNELS 3 Zrotation Yrotation Xrotation
										End Site
										{
											OFFSET 0.79753 -0.00000 0.00000
										}
									}
								}
								JOINT LThumb
								{
									OFFSET 0 0 0
									CHANNELS 3 Zrotation Yrotation Xrotation
									End Site
									{
										OFFSET 0.80972 -0.00000 0.80972
									}
								}
							}
						}
					}
				}
				JOINT RightShoulder
				{
					OFFSET 0 0 0
					CHANNELS 3 Zrotation Yrotation Xrotation
					JOINT RightArm
					{
						OFFSET -2.94414 1.45463 -0.25291
						CHANNELS 3 Zrotation Yrotation Xrotation
						JOINT RightForeArm
						{
							OFFSET -4.71404 -0.00000 0.00000
							CHANNELS 3 Zrotation Yrotation Xrotation
							JOINT RightHand
							{
								OFFSET -2.83468 -0.00000 0.00000
								CHANNELS 3 Zrotation Yrotation Xrotation
								JOINT RightFingerBase
								{
									OFFSET 0 0 0
									CHANNELS 3 Zrotation Yrotation Xrotation
									JOINT RightHandIndex1
									{
										OFFSET -0.86820 -0.00000 0.00000
										CHANNELS 3 Zrotation Yrotation Xrotation
										End Site
										{
											OFFSET -0.69996 -0.00000 0.00000
										}
									}
								}
								JOINT RThumb
								{
									OFFSET 0 0 0
									CHANNELS 3 Zrotation Yrotation Xrotation
									End Site
									{
										OFFSET -0.71065 -0.00000 0.71065
									}
								}
							}
						}
					}
				}
			}
		}
	}
}
MOTION
Frames: 15
Frame Time: .0083333
15.6685 16.6863 24.3684 0 0 0 0 0 0 -21 0 0 0 0 0 0 0 0 0 0 0 0 0 0 21 0 0 0 0 0 0 0 0 0 0 0 0 0 0 0 0 0 0 0 0 0 0 -16 0 0 21 0 0 11 0 0 0 -8 0 0 0 0 0 0 0 0 0 0 0 0 0 0 0 0 0 0 0 0 8 0 0 0 0 0 0 0 0 0 0 0 0 0 0 0 0 0
15.6685 16.6863 24.3684 -177.0160 9.0529 -168.8330 0.0000 0.0000 0.0000 -8.8603 -19.4887 -35.2763 1.8849 8.6221 24.6202 0.5357 15.6706 16.0053 0.2647 -3.3098 -9.1424 0.0000 0.0000 0.0000 23.3933 0.8379 9.5610 -4.0331 -12.2043 36.4587 -0.5696 -26.7394 22.2399 -0.7604 5.5689 -15.5386 1.2374 7.6201 -4.4353 -5.4310 10.4365 -2.3252 -5.6272 5.3334 1.2887 2.8451 -2.3384 -31.9201 4.3738 -13.4275 43.6097 -2.7239 -4.5749 26.2929 0.0000 -0.0000 0.0000 -53.9391 33.4080 67.6960 109.5867 -58.4996 -76.8771 -0.0000 -0.0000 17.4790 15.5929 5.6425 1.5717 -7.1250 0.0000 -0.0000 -9.2763 35.7071 2.1414 0.0000 -0.0000 0.0000 91.8747 -11.4597 46.6754 -106.0755 59.0007 -73.8751 0.0000 0.0000 7.6251 -14.8229 -0.2210 0.0585 7.1250 -0.0000 -0.0000 9.2484 -30.1400 3.3939
15.6518 16.6030 23.9910 -177.1070 8.9705 -169.2340 0.0000 0.0000 0.0000 -10.2282 -18.2994 -34.4948 1.9106 8.6774 24.7912 0.6015 15.3572 16.4112 0.2748 -3.3720 -9.3162 0.0000 0.0000 0.0000 23.0102 0.6364 8.3384 -4.8465 -13.2089 40.1554 -0.3986 -26.2114 20.9333 -0.8370 5.8359 -16.3091 1.8217 8.4215 -3.7416 -6.6814 11.6147 -2.7092 -7.2616 5.9737 1.0115 4.7535 -2.8005 -31.4438 4.5803 -15.6073 43.4491 -3.5709 -4.9992 25.7170 -0.0000 -0.0000 0.0000 -50.2219 30.9685 70.7345 109.0688 -58.5805 -76.4354 -0.0000 -0.0000 17.3531 15.8440 5.6159 1.5909 -7.1250 0.0000 -0.0000 -9.0651 35.6927 2.0949 -0.0000 -0.0000 0.0000 95.5597 -12.9232 42.6784 -105.1061 59.1200 -73.0436 0.0000 0.0000 8.1824 -14.9602 -0.5263 0.1406 7.1250 -0.0000 -0.0000 9.1708 -30.4538 3.2951
15.6322 16.5103 23.6092 -177.4070 8.9429 -169.6330 0.0000 0.0000 0.0000 -11.6770 -17.3317 -33.8677 2.0206 8.9088 25.5104 0.6781 14.7856 16.8038 0.3175 -3.6220 -10.0157 0.0000 0.0000 0.0000 22.3421 0.3779 7.1809 -5.7184 -14.1498 43.8410 -0.1927 -25.8913 19.4908 -0.8073 5.7342 -16.0152 0.8379 6.8218 -4.2631 -4.9561 9.3470 -1.8877 -5.0063 4.7735 1.3831 3.0193 -1.5032 -32.1871 3.7521 -11.8544 43.8933 -2.6628 -4.0869 26.5463 0.0000 -0.0000 0.0000 -56.9657 32.8617 65.5691 107.8156 -58.7661 -75.3648 -0.0000 -0.0000 18.0533 16.0336 4.8705 1.3977 -7.1250 0.0000 -0.0000 -8.8076 34.9370 2.1980 0.0000 -0.0000 0.0000 91.4837 -12.6263 46.4743 -102.5078 59.4005 -70.8103 0.0000 0.0000 7.9374 -15.1624 -1.2009 0.3254 7.1250 -0.0000 -0.0000 9.0798 -31.1469 3.1090
15.6113 16.4136 23.2285 -177.7590 8.7541 -170.0270 0.0000 0.0000 0.0000 -13.5114 -15.9333 -33.0491 2.1566 9.1848 26.3752 0.5106 12.7170 14.5234 0.0658 -1.6547 -4.5523 0.0000 0.0000 0.0000 21.6094 -0.0183 5.7627 -6.6077 -14.9924 47.3743 -0.0569 -25.3845 18.2902 -0.8274 5.8034 -16.2149 0.0683 5.9050 -4.3979 -4.0656 8.0906 -1.3660 -3.7211 4.1170 1.6402 2.2728 -0.9758 -32.7681 3.2082 -9.9815 43.8735 -2.2686 -3.6308 26.7208 0.0000 -0.0000 0.0000 -60.6986 32.8994 62.9129 106.6500 -58.9262 -74.3673 -0.0000 -0.0000 18.5919 16.2148 5.0078 1.4541 -7.1250 0.0000 -0.0000 -8.6769 35.0865 2.1328 0.0000 -0.0000 0.0000 89.6103 -12.9479 47.5949 -100.5693 59.5737 -69.1402 0.0000 0.0000 7.3651 -15.2401 -1.7343 0.4724 7.1250 -0.0000 -0.0000 9.0745 -31.6943 2.9864
15.5919 16.3075 22.8520 -178.0790 8.6433 -170.4110 0.0000 0.0000 0.0000 -14.9858 -14.9417 -32.3243 2.3459 9.5521 27.5382 0.3379 11.9331 12.4666 0.0433 -1.3428 -3.6924 0.0000 0.0000 0.0000 20.9351 -0.2514 4.4929 -7.5464 -15.7753 50.9119 0.0850 -24.9457 17.0416 -0.8448 5.8625 -16.3859 -0.5592 5.1947 -4.4089 -3.4393 7.1321 -0.9125 -2.7788 3.6175 1.8912 1.8112 -0.4991 -33.5023 2.8051 -8.5659 43.9482 -1.9995 -3.2595 27.1029 0.0000 -0.0000 0.0000 -63.5933 32.4242 60.8072 105.4649 -59.0767 -73.3515 -0.0000 -0.0000 18.9680 16.3915 4.8361 1.4206 -7.1250 0.0000 -0.0000 -8.5094 34.9179 2.1262 0.0000 -0.0000 0.0000 88.3376 -13.1181 48.1292 -98.5023 59.7251 -67.3564 0.0000 0.0000 7.1109 -15.3245 -2.2429 0.6144 7.1250 -0.0000 -0.0000 9.0629 -32.2170 2.8670
15.5721 16.1940 22.4794 -178.4470 8.5240 -170.7720 0.0000 0.0000 0.0000 -16.3750 -14.2074 -31.6269 2.6127 10.0399 29.1061 0.1144 11.5774 9.6759 0.0360 -1.2247 -3.3673 0.0000 0.0000 0.0000 20.2315 -0.4077 3.1414 -8.5353 -16.4992 54.4686 0.2109 -24.4834 15.8218 -0.8620 5.9205 -16.5540 -1.1452 4.6210 -4.3378 -3.0061 6.3715 -0.4942 -2.0513 3.2211 2.1327 1.5029 -0.1570 -34.3643 2.4898 -7.5196 43.9860 -1.8184 -2.9674 27.5234 0.0000 -0.0000 0.0000 -65.8544 31.4961 59.2169 104.1579 -59.2289 -72.2294 -0.0000 -0.0000 19.2858 16.5340 4.7250 1.4008 -7.1250 0.0000 -0.0000 -8.3784 34.8099 2.1151 0.0000 -0.0000 0.0000 87.5274 -13.3115 48.0956 -96.3437 59.8474 -65.4910 0.0000 0.0000 6.8953 -15.3838 -2.7144 0.7465 7.1250 -0.0000 -0.0000 9.0689 -32.7014 2.7617
15.5517 16.0747 22.1121 -178.8520 8.3969 -171.1060 0.0000 0.0000 0.0000 -17.6824 -13.7412 -30.8801 2.9274 10.5765 30.8647 -0.1138 11.7790 6.5349 0.0355 -1.2165 -3.3446 0.0000 0.0000 0.0000 19.5167 -0.4599 1.6858 -9.5738 -17.1631 58.0541 0.3116 -23.9562 14.6686 -0.8896 6.0121 -16.8195 -1.5999 4.2872 -4.1683 -2.8959 5.9463 -0.1605 -1.7147 3.0011 2.3110 1.5339 0.0003 -35.1547 2.2906 -7.0858 43.9577 -1.8185 -2.7959 27.8370 -0.0000 0.0000 0.0000 -67.0279 30.1079 58.5338 102.7369 -59.3780 -71.0074 -0.0000 -0.0000 19.4693 16.6562 4.7148 1.4087 -7.1250 0.0000 -0.0000 -8.2769 34.8049 2.0900 -0.0000 0.0000 0.0000 87.5648 -13.7035 47.1596 -94.1438 59.9350 -63.5878 0.0000 0.0000 6.8080 -15.3845 -3.0991 0.8523 7.1250 -0.0000 -0.0000 9.1135 -33.0952 2.6879
15.5305 15.9522 21.7514 -179.2710 8.2555 -171.4320 0.0000 0.0000 0.0000 -18.8962 -13.5303 -30.1027 3.2913 11.1524 32.7955 -0.3254 12.4988 3.3583 0.0451 -1.3704 -3.7686 0.0000 0.0000 0.0000 18.8172 -0.4126 0.1375 -10.6535 -17.7613 61.6512 0.3851 -23.3386 13.5873 -0.9231 6.1210 -17.1360 -2.0064 4.0244 -3.9198 -2.8945 5.6190 0.1313 -1.5166 2.8332 2.4268 1.6790 0.1112 -35.7907 2.1590 -6.8441 43.8826 -1.8523 -2.6635 28.0210 -0.0000 0.0000 0.0000 -67.8770 28.5264 58.1661 101.1666 -59.5236 -69.6550 -0.0000 -0.0000 19.5997 16.7624 4.7973 1.4430 -7.1250 0.0000 -0.0000 -8.2000 34.8948 2.0522 -0.0000 0.0000 0.0000 87.9381 -14.1880 45.8619 -91.8100 59.9876 -61.5674 0.0000 0.0000 6.7922 -15.3893 -3.4634 0.9526 7.1250 -0.0000 -0.0000 9.1536 -33.4682 2.6163
15.5090 15.8300 21.3974 -179.6920 8.1209 -171.7850 0.0000 0.0000 0.0000 -20.0451 -13.4695 -29.2650 3.6833 11.7267 34.7718 -0.5155 13.5540 0.3464 0.0410 -1.3072 -3.5946 0.0000 0.0000 0.0000 18.1417 -0.2607 -1.4722 -11.7607 -18.2876 65.2282 0.4328 -22.6151 12.5682 -0.9638 6.2509 -17.5141 -2.4024 3.7656 -3.5773 -2.9064 5.2941 0.4094 -1.3436 2.6674 2.4826 1.8359 0.2079 -36.2692 2.0465 -6.6080 43.7341 -1.8654 -2.5350 28.0286 -0.0000 0.0000 0.0000 -68.7318 26.8483 57.8678 99.4407 -59.6605 -68.1666 -0.0000 -0.0000 19.6858 16.8819 5.0297 1.5241 -7.1250 0.0000 -0.0000 -8.1308 35.1402 1.9856 -0.0000 0.0000 0.0000 88.3997 -14.7499 44.4386 -89.3838 59.9986 -59.4664 0.0000 0.0000 6.7745 -15.4144 -3.8216 1.0528 7.1250 -0.0000 -0.0000 9.1778 -33.8357 2.5407
15.4887 15.7115 21.0503 -180.1370 8.0151 -172.2110 0.0000 0.0000 0.0000 -21.2006 -13.4013 -28.3054 4.0754 12.2601 36.6583 -0.6802 14.7092 -2.3747 0.0374 -1.2483 -3.4324 0.0000 0.0000 0.0000 17.4623 -0.0146 -3.1109 -12.8807 -18.7387 68.7545 0.4594 -21.7695 11.5711 -1.0114 6.3989 -17.9463 -2.8685 3.4390 -3.1108 -2.8429 4.8711 0.7074 -1.0652 2.4502 2.4807 1.8580 0.3479 -36.5836 1.9688 -6.1784 43.5193 -1.7543 -2.3765 27.8796 -0.0000 0.0000 0.0000 -69.8939 25.1544 57.3877 97.5829 -59.7816 -66.5621 -0.0000 -0.0000 19.7807 17.0252 5.4465 1.6648 -7.1250 0.0000 -0.0000 -8.0659 35.5779 1.8827 -0.0000 0.0000 0.0000 88.6744 -15.3396 43.1452 -86.8520 59.9625 -57.2741 0.0000 0.0000 6.7363 -15.5095 -4.2093 1.1669 7.1250 -0.0000 -0.0000 9.1499 -34.2364 2.4428
15.4712 15.5991 20.7104 -180.6250 7.9626 -172.7430 0.0000 0.0000 0.0000 -22.4029 -13.2394 -27.1601 4.4364 12.7195 38.3275 -0.8230 15.8486 -4.8735 0.0306 -1.1300 -3.1066 0.0000 0.0000 0.0000 16.7520 0.3233 -4.7575 -14.0025 -19.1148 72.2122 0.4826 -20.8493 10.4886 -1.0609 6.5486 -18.3848 -3.4545 3.0541 -2.5134 -2.7022 4.3644 1.0593 -0.6468 2.1878 2.4542 1.7296 0.5182 -36.8195 1.9223 -5.5673 43.2426 -1.5265 -2.1877 27.6268 0.0000 0.0000 0.0000 -71.3328 23.4013 56.7396 95.6657 -59.8784 -64.9046 -0.0000 -0.0000 19.8820 17.1817 6.0697 1.8726 -7.1250 0.0000 -0.0000 -8.0181 36.2308 1.7426 0.0000 0.0000 0.0000 88.7087 -15.9181 42.0184 -84.2305 59.8738 -55.0056 0.0000 0.0000 6.7001 -15.7162 -4.6382 1.3035 7.1250 -0.0000 -0.0000 9.0371 -34.6844 2.3126
15.4578 15.4945 20.3773 -181.1890 7.9824 -173.3460 0.0000 0.0000 0.0000 -23.6893 -12.9130 -25.8478 4.7418 13.0870 39.6949 -0.9420 16.8984 -7.1544 0.0241 -1.0019 -2.7540 0.0000 0.0000 0.0000 15.9755 0.7753 -6.4655 -15.1151 -19.4180 75.5830 0.5085 -19.9056 9.2939 -1.1112 6.6970 -18.8207 -4.2117 2.6468 -1.8362 -2.5225 3.8289 1.4675 -0.0904 1.9075 2.4411 1.5284 0.7150 -37.1111 1.8778 -4.8349 42.9263 -1.2413 -1.9667 27.3575 -0.0000 0.0000 0.0000 -72.8933 21.5388 56.0191 93.7944 -59.9455 -63.2855 -0.0000 -0.0000 20.0475 17.3464 6.8786 2.1424 -7.1250 0.0000 -0.0000 -7.9920 37.0775 1.5701 -0.0000 0.0000 0.0000 88.5510 -16.4806 40.9877 -81.6065 59.7321 -52.7375 0.0000 0.0000 6.6788 -16.0955 -5.0776 1.4629 7.1250 -0.0000 -0.0000 8.7842 -35.1526 2.1455
15.4484 15.3968 20.0513 -181.8410 8.0890 -173.9550 0.0000 0.0000 0.0000 -25.0563 -12.4216 -24.4218 4.9784 13.3594 40.7293 -1.0458 17.8822 -9.0948 0.0226 -0.9713 -2.6698 0.0000 0.0000 0.0000 15.1169 1.3655 -8.3107 -16.2098 -19.6520 78.8561 0.5394 -18.9872 7.9817 -1.1620 6.8434 -19.2521 -5.1137 2.3023 -1.1395 -2.4045 3.3828 1.8750 0.4922 1.6718 2.4272 3.4826 -1.8483 -37.4261 0.1299 -2.6066 42.7741 -0.9797 0.7891 27.0556 -0.0000 -0.0000 0.0000 -74.2171 19.5891 55.4881 92.1085 -59.9832 -61.8259 -0.0000 -0.0000 20.2757 17.5029 7.7414 2.4324 -7.1250 0.0000 -0.0000 -7.9858 37.9808 1.3907 -0.0000 -0.0000 0.0000 88.4531 -17.1443 39.8322 -79.1184 59.5478 -50.5906 0.0000 0.0000 6.7268 -16.5766 -5.5105 1.6373 7.1250 -0.0000 -0.0000 8.4451 -35.6216 1.9637
15.4415 15.3092 19.7306 -182.5350 8.2808 -174.4770 0.0000 0.0000 0.0000 -26.4280 -11.8302 -22.9933 5.1475 13.5480 41.4561 -1.1452 18.8217 -10.6550 0.0256 -1.0325 -2.8381 0.0000 0.0000 0.0000 14.2260 2.1202 -10.3715 -17.2618 -19.8193 81.9708 0.5747 -18.1531 6.5847 -1.2151 6.9923 -19.6927 -6.0840 2.0175 -0.5303 -2.3433 3.0254 2.2871 1.0667 1.4788 2.4802 3.2817 -1.5177 -37.8663 0.2421 -2.1539 42.4537 -0.7511 0.8431 26.9007 -0.0000 -0.0000 0.0000 -75.3118 17.5606 55.0949 90.7222 -59.9980 -60.6254 -0.0000 -0.0000 20.5297 17.6489 8.5248 2.7002 -7.1250 0.0000 -0.0000 -7.9821 38.8024 1.2279 -0.0000 -0.0000 0.0000 88.3971 -17.8315 38.6035 -76.8193 59.3333 -48.6107 0.0000 0.0000 6.7675 -17.1416 -5.8873 1.8120 7.1250 -0.0000 -0.0000 8.0270 -36.0399 1.7823
